<mxfile host="app.diagrams.net" modified="2023-08-13T13:26:25.124Z" agent="Mozilla/5.0 (Windows NT 10.0; Win64; x64) AppleWebKit/537.36 (KHTML, like Gecko) Chrome/114.0.0.0 Safari/537.36 OPR/100.0.0.0" etag="v7ZB6qd7oqmVUccW8kuc" version="21.6.8" type="github">
  <diagram id="UBXkYwwmbn8SLsa3aRLl" name="main">
    <mxGraphModel dx="1835" dy="985" grid="1" gridSize="10" guides="1" tooltips="1" connect="1" arrows="1" fold="1" page="1" pageScale="1" pageWidth="827" pageHeight="1169" math="0" shadow="0">
      <root>
        <mxCell id="0" />
        <mxCell id="1" parent="0" />
        <mxCell id="PBsppGvL_e9_x3geSDml-1" value="UI&lt;br&gt;Client" style="rounded=1;whiteSpace=wrap;html=1;labelBackgroundColor=none;fillColor=#ffe6cc;strokeColor=#d79b00;" parent="1" vertex="1">
          <mxGeometry x="160" y="400" width="60" height="60" as="geometry" />
        </mxCell>
        <mxCell id="PBsppGvL_e9_x3geSDml-2" value="Api-Композитор&lt;br&gt;" style="rhombus;whiteSpace=wrap;html=1;labelBackgroundColor=none;fillColor=#f5f5f5;fontColor=#333333;strokeColor=#666666;rounded=1;" parent="1" vertex="1">
          <mxGeometry x="320" y="380" width="100" height="100" as="geometry" />
        </mxCell>
        <mxCell id="PBsppGvL_e9_x3geSDml-5" value="" style="endArrow=none;html=1;rounded=1;exitX=1;exitY=0.5;exitDx=0;exitDy=0;entryX=0;entryY=0.5;entryDx=0;entryDy=0;labelBackgroundColor=none;fontColor=default;" parent="1" source="PBsppGvL_e9_x3geSDml-1" target="PBsppGvL_e9_x3geSDml-2" edge="1">
          <mxGeometry width="50" height="50" relative="1" as="geometry">
            <mxPoint x="260" y="470" as="sourcePoint" />
            <mxPoint x="310" y="420" as="targetPoint" />
          </mxGeometry>
        </mxCell>
        <mxCell id="qCK3WZtqA-NkHviAnRfz-2" value="Сервіс авторизациї&lt;br&gt;(Keycloak)" style="shape=hexagon;perimeter=hexagonPerimeter2;whiteSpace=wrap;html=1;fixedSize=1;labelBackgroundColor=none;rounded=1;fillColor=#f5f5f5;fontColor=#333333;strokeColor=#666666;" parent="1" vertex="1">
          <mxGeometry x="292.5" y="130" width="155" height="100" as="geometry" />
        </mxCell>
        <mxCell id="qCK3WZtqA-NkHviAnRfz-4" value="REST&lt;br&gt;" style="endArrow=classic;startArrow=classic;html=1;rounded=1;exitX=0.497;exitY=0.041;exitDx=0;exitDy=0;entryX=0.5;entryY=1;entryDx=0;entryDy=0;exitPerimeter=0;" parent="1" source="PBsppGvL_e9_x3geSDml-2" edge="1">
          <mxGeometry x="0.0667" y="20" width="50" height="50" relative="1" as="geometry">
            <mxPoint x="369.9" y="380" as="sourcePoint" />
            <mxPoint x="369.9" y="230" as="targetPoint" />
            <mxPoint as="offset" />
          </mxGeometry>
        </mxCell>
        <mxCell id="qCK3WZtqA-NkHviAnRfz-5" value="Профіль користувача" style="shape=hexagon;perimeter=hexagonPerimeter2;whiteSpace=wrap;html=1;fixedSize=1;fillColor=#f5f5f5;fontColor=#333333;strokeColor=#666666;rounded=1;" parent="1" vertex="1">
          <mxGeometry x="447.5" y="260" width="120" height="80" as="geometry" />
        </mxCell>
        <mxCell id="qCK3WZtqA-NkHviAnRfz-6" value="REST" style="endArrow=classic;startArrow=classic;html=1;rounded=1;entryX=0;entryY=0.75;entryDx=0;entryDy=0;" parent="1" target="qCK3WZtqA-NkHviAnRfz-5" edge="1">
          <mxGeometry x="0.1206" y="22" width="50" height="50" relative="1" as="geometry">
            <mxPoint x="390" y="400" as="sourcePoint" />
            <mxPoint x="440" y="350" as="targetPoint" />
            <mxPoint as="offset" />
          </mxGeometry>
        </mxCell>
        <mxCell id="qCK3WZtqA-NkHviAnRfz-19" value="" style="endArrow=classic;startArrow=classic;html=1;rounded=1;exitX=0.467;exitY=-0.017;exitDx=0;exitDy=0;exitPerimeter=0;entryX=0.5;entryY=1;entryDx=0;entryDy=0;" parent="1" source="qCK3WZtqA-NkHviAnRfz-16" target="qCK3WZtqA-NkHviAnRfz-20" edge="1">
          <mxGeometry width="50" height="50" relative="1" as="geometry">
            <mxPoint x="370" y="530" as="sourcePoint" />
            <mxPoint x="375" y="750" as="targetPoint" />
          </mxGeometry>
        </mxCell>
        <mxCell id="qCK3WZtqA-NkHviAnRfz-24" value="" style="group" parent="1" vertex="1" connectable="0">
          <mxGeometry x="240" y="585" width="190" height="150" as="geometry" />
        </mxCell>
        <mxCell id="qCK3WZtqA-NkHviAnRfz-22" value="" style="group" parent="qCK3WZtqA-NkHviAnRfz-24" vertex="1" connectable="0">
          <mxGeometry x="70" width="120" height="150" as="geometry" />
        </mxCell>
        <mxCell id="qCK3WZtqA-NkHviAnRfz-20" value="CQRS-Представление" style="shape=hexagon;perimeter=hexagonPerimeter2;whiteSpace=wrap;html=1;fixedSize=1;rounded=1;fillColor=#f5f5f5;fontColor=#333333;strokeColor=#666666;" parent="qCK3WZtqA-NkHviAnRfz-22" vertex="1">
          <mxGeometry width="120" height="80" as="geometry" />
        </mxCell>
        <mxCell id="qCK3WZtqA-NkHviAnRfz-21" value="DB" style="shape=datastore;whiteSpace=wrap;html=1;rounded=1;" parent="qCK3WZtqA-NkHviAnRfz-24" vertex="1">
          <mxGeometry y="10" width="60" height="60" as="geometry" />
        </mxCell>
        <mxCell id="qCK3WZtqA-NkHviAnRfz-27" value="REST" style="endArrow=classic;startArrow=classic;html=1;rounded=1;exitX=0.5;exitY=0;exitDx=0;exitDy=0;entryX=0.5;entryY=1;entryDx=0;entryDy=0;" parent="1" source="qCK3WZtqA-NkHviAnRfz-20" target="PBsppGvL_e9_x3geSDml-2" edge="1">
          <mxGeometry x="0.0476" y="20" width="50" height="50" relative="1" as="geometry">
            <mxPoint x="380" y="570" as="sourcePoint" />
            <mxPoint x="430" y="520" as="targetPoint" />
            <mxPoint as="offset" />
          </mxGeometry>
        </mxCell>
        <mxCell id="qCK3WZtqA-NkHviAnRfz-30" value="REST" style="endArrow=classic;startArrow=classic;html=1;rounded=1;entryX=1;entryY=0.75;entryDx=0;entryDy=0;" parent="1" target="qCK3WZtqA-NkHviAnRfz-2" edge="1">
          <mxGeometry x="-0.1133" y="-18" width="50" height="50" relative="1" as="geometry">
            <mxPoint x="510" y="260" as="sourcePoint" />
            <mxPoint x="560" y="210" as="targetPoint" />
            <mxPoint as="offset" />
          </mxGeometry>
        </mxCell>
        <mxCell id="32mQGF3PDhcGtLx1aaVk-4" value="" style="group" parent="1" vertex="1" connectable="0">
          <mxGeometry x="80" y="765" width="590" height="305" as="geometry" />
        </mxCell>
        <mxCell id="qCK3WZtqA-NkHviAnRfz-13" value="" style="group" parent="32mQGF3PDhcGtLx1aaVk-4" vertex="1" connectable="0">
          <mxGeometry y="115" width="120" height="150" as="geometry" />
        </mxCell>
        <mxCell id="qCK3WZtqA-NkHviAnRfz-9" value="Сервіс маршрутів" style="shape=hexagon;perimeter=hexagonPerimeter2;whiteSpace=wrap;html=1;fixedSize=1;fillColor=#f5f5f5;fontColor=#333333;strokeColor=#666666;rounded=1;" parent="qCK3WZtqA-NkHviAnRfz-13" vertex="1">
          <mxGeometry width="120" height="80" as="geometry" />
        </mxCell>
        <mxCell id="qCK3WZtqA-NkHviAnRfz-12" value="DB" style="shape=datastore;whiteSpace=wrap;html=1;rounded=1;" parent="qCK3WZtqA-NkHviAnRfz-13" vertex="1">
          <mxGeometry x="30" y="90" width="60" height="60" as="geometry" />
        </mxCell>
        <mxCell id="qCK3WZtqA-NkHviAnRfz-15" value="" style="group" parent="32mQGF3PDhcGtLx1aaVk-4" vertex="1" connectable="0">
          <mxGeometry x="235" y="155" width="120" height="150" as="geometry" />
        </mxCell>
        <mxCell id="qCK3WZtqA-NkHviAnRfz-7" value="Сервіс Місць" style="shape=hexagon;perimeter=hexagonPerimeter2;whiteSpace=wrap;html=1;fixedSize=1;rounded=1;fillColor=#f5f5f5;fontColor=#333333;strokeColor=#666666;" parent="qCK3WZtqA-NkHviAnRfz-15" vertex="1">
          <mxGeometry width="120" height="80" as="geometry" />
        </mxCell>
        <mxCell id="qCK3WZtqA-NkHviAnRfz-14" value="DB" style="shape=datastore;whiteSpace=wrap;html=1;rounded=1;" parent="qCK3WZtqA-NkHviAnRfz-15" vertex="1">
          <mxGeometry x="30" y="90" width="60" height="60" as="geometry" />
        </mxCell>
        <mxCell id="qCK3WZtqA-NkHviAnRfz-16" value="Шина повідомлень" style="strokeWidth=2;html=1;shape=mxgraph.flowchart.direct_data;whiteSpace=wrap;rounded=1;fillColor=#f8cecc;strokeColor=#b85450;" parent="32mQGF3PDhcGtLx1aaVk-4" vertex="1">
          <mxGeometry x="190" width="210" height="60" as="geometry" />
        </mxCell>
        <mxCell id="qCK3WZtqA-NkHviAnRfz-28" value="Сервіс погодних умов" style="shape=hexagon;perimeter=hexagonPerimeter2;whiteSpace=wrap;html=1;fixedSize=1;rounded=1;fillColor=#f5f5f5;fontColor=#333333;strokeColor=#666666;" parent="32mQGF3PDhcGtLx1aaVk-4" vertex="1">
          <mxGeometry x="480" y="115" width="110" height="80" as="geometry" />
        </mxCell>
        <mxCell id="qCK3WZtqA-NkHviAnRfz-18" value="" style="endArrow=classic;startArrow=classic;html=1;rounded=1;entryX=0.5;entryY=1;entryDx=0;entryDy=0;entryPerimeter=0;exitX=0.5;exitY=0;exitDx=0;exitDy=0;" parent="32mQGF3PDhcGtLx1aaVk-4" source="qCK3WZtqA-NkHviAnRfz-7" target="qCK3WZtqA-NkHviAnRfz-16" edge="1">
          <mxGeometry width="50" height="50" relative="1" as="geometry">
            <mxPoint x="500" y="640" as="sourcePoint" />
            <mxPoint x="550" y="590" as="targetPoint" />
          </mxGeometry>
        </mxCell>
        <mxCell id="qCK3WZtqA-NkHviAnRfz-17" value="" style="endArrow=classic;startArrow=classic;html=1;rounded=1;entryX=0.08;entryY=1;entryDx=0;entryDy=0;entryPerimeter=0;exitX=0.5;exitY=0;exitDx=0;exitDy=0;" parent="32mQGF3PDhcGtLx1aaVk-4" source="qCK3WZtqA-NkHviAnRfz-9" target="qCK3WZtqA-NkHviAnRfz-16" edge="1">
          <mxGeometry width="50" height="50" relative="1" as="geometry">
            <mxPoint x="260" y="640" as="sourcePoint" />
            <mxPoint x="310" y="590" as="targetPoint" />
          </mxGeometry>
        </mxCell>
        <mxCell id="32mQGF3PDhcGtLx1aaVk-2" value="" style="endArrow=classic;startArrow=classic;html=1;rounded=0;exitX=0.5;exitY=0;exitDx=0;exitDy=0;entryX=0.91;entryY=1;entryDx=0;entryDy=0;entryPerimeter=0;" parent="32mQGF3PDhcGtLx1aaVk-4" source="qCK3WZtqA-NkHviAnRfz-28" target="qCK3WZtqA-NkHviAnRfz-16" edge="1">
          <mxGeometry width="50" height="50" relative="1" as="geometry">
            <mxPoint x="610" y="875" as="sourcePoint" />
            <mxPoint x="660" y="825" as="targetPoint" />
          </mxGeometry>
        </mxCell>
      </root>
    </mxGraphModel>
  </diagram>
</mxfile>
